<?xml version="1.0" standalone="no"?>
<!DOCTYPE svg PUBLIC "-//W3C//DTD SVG 20010904//EN"
 "http://www.w3.org/TR/2001/REC-SVG-20010904/DTD/svg10.dtd">
<svg version="1.0" xmlns="http://www.w3.org/2000/svg"
 width="1024.000000pt" height="1024.000000pt" viewBox="0 0 1024.000000 1024.000000"
 preserveAspectRatio="xMidYMid meet">

<g transform="translate(0.000000,1024.000000) scale(0.100000,-0.100000)"
fill="#000000" stroke="none">
<path d="M1974 5924 c-20 -19 -24 -31 -19 -52 10 -42 29 -50 133 -57 138 -9
168 -14 185 -33 8 -9 33 -105 56 -212 105 -494 198 -881 217 -907 11 -15 33
-36 48 -47 27 -20 40 -21 530 -24 498 -3 502 -3 529 18 32 26 35 62 7 90 -19
19 -33 20 -502 20 -266 0 -489 4 -497 9 -11 7 -40 104 -41 138 0 8 55 12 188
16 105 2 204 9 225 16 49 16 114 74 133 119 39 93 5 213 -73 259 l-45 26 26
16 c35 21 66 87 66 139 0 80 -41 145 -115 185 -37 21 -58 22 -314 27 l-274 5
-22 87 c-24 99 -55 142 -115 158 -29 7 -240 30 -288 30 -7 0 -24 -11 -38 -26z
m956 -444 c26 -26 25 -60 -1 -94 -19 -25 -25 -26 -115 -26 l-94 0 0 70 0 70
95 0 c82 0 98 -3 115 -20z m41 -299 c26 -32 24 -77 -6 -106 -23 -24 -31 -25
-135 -25 l-110 0 0 81 0 81 116 -4 c108 -3 117 -5 135 -27z"/>
<path d="M2955 5820 c-3 -5 -2 -10 4 -10 5 0 13 5 16 10 3 6 2 10 -4 10 -5 0
-13 -4 -16 -10z"/>
<path d="M2941 5777 c-11 -17 -11 -17 16 -1 15 10 30 19 32 20 2 2 -6 2 -17 1
-11 0 -25 -9 -31 -20z"/>
<path d="M4212 5506 c-17 -8 -37 -27 -42 -41 -6 -16 -10 -172 -10 -386 0 -389
3 -412 54 -425 12 -3 126 -4 252 -2 218 3 231 4 274 27 95 50 133 110 134 211
0 92 -30 151 -96 189 l-50 29 30 21 c17 12 40 42 52 67 19 38 22 57 17 111 -7
86 -41 137 -121 177 -57 30 -58 30 -259 33 -162 3 -208 1 -235 -11z m374 -184
c29 -15 46 -65 34 -97 -17 -46 -48 -56 -156 -53 l-99 3 -3 69 c-2 38 -1 74 2
81 5 15 193 13 222 -3z m60 -345 c49 -57 19 -138 -57 -152 -19 -3 -77 -5 -129
-3 l-95 3 -3 79 c-2 44 0 86 3 93 4 12 29 14 131 11 124 -3 126 -3 150 -31z"/>
<path d="M4995 5495 l-25 -24 0 -386 0 -387 30 -30 c28 -28 36 -30 78 -25 34
4 53 12 69 32 20 23 23 37 23 121 l0 95 43 46 43 45 98 -124 c167 -211 163
-207 201 -214 90 -17 157 75 108 146 -10 14 -64 81 -121 150 -57 69 -112 137
-123 151 l-19 27 125 131 c116 121 125 133 125 169 0 69 -68 118 -128 93 -16
-7 -100 -91 -188 -188 l-159 -175 -5 162 -5 162 -28 24 c-40 34 -108 34 -142
-1z"/>
<path d="M2443 4314 c9 -9 5687 -10 5687 -1 0 4 -1281 7 -2847 7 -1565 0
-2844 -3 -2840 -6z"/>
</g>
</svg>
